<svg xmlns="http://www.w3.org/2000/svg" xmlns:xlink="http://www.w3.org/1999/xlink" viewBox="0 0 2800 1900" id="milkman-is-working-on-the-laptop">
  <defs>
    <linearGradient id="b5bfdf52-4510-436d-a15d-1bd566083471" x1="4988.122" x2="5778.437" y1="1187.842" y2="1978.157" gradientTransform="matrix(-1 0 0 1 5977.478 0)" gradientUnits="userSpaceOnUse">
      <stop offset="0"></stop>
      <stop offset="1" stop-color="#fff"></stop>
    </linearGradient>
    <linearGradient id="b8d54206-1653-4b54-ba43-91c2aad3e8b8" x1="4988.122" x2="5778.437" y1="1187.842" y2="1978.157" gradientTransform="matrix(-1 0 0 1 5977.478 0)" gradientUnits="userSpaceOnUse">
      <stop offset="0" stop-color="#55f3ff"></stop>
      <stop offset="1" stop-color="#55f3ff"></stop>
    </linearGradient>
    <linearGradient id="bdec3ff8-d854-4edd-bccf-2fc27957860a" x1="1515.18" x2="1970.496" y1="1648.288" y2="1648.288" gradientUnits="userSpaceOnUse">
      <stop offset="0" stop-color="#b5b8bb"></stop>
      <stop offset=".029" stop-color="#adb0b4"></stop>
      <stop offset=".075" stop-color="#9599a2"></stop>
      <stop offset=".079" stop-color="#9397a0"></stop>
      <stop offset=".161" stop-color="#cbd0d7"></stop>
      <stop offset=".201" stop-color="#e1e6ed"></stop>
      <stop offset=".326" stop-color="#a1a7ad"></stop>
      <stop offset=".386" stop-color="#878d93"></stop>
      <stop offset=".415" stop-color="#81878e"></stop>
      <stop offset=".47" stop-color="#7e848c"></stop>
      <stop offset=".493" stop-color="#757b84"></stop>
      <stop offset=".558" stop-color="#606770"></stop>
      <stop offset=".601" stop-color="#585f69"></stop>
      <stop offset=".641" stop-color="#5e656e"></stop>
      <stop offset=".693" stop-color="#6e757e"></stop>
      <stop offset=".751" stop-color="#888f98"></stop>
      <stop offset=".814" stop-color="#adb4bb"></stop>
      <stop offset=".861" stop-color="#ced4db"></stop>
      <stop offset=".898" stop-color="#cad0d7"></stop>
      <stop offset=".933" stop-color="#bfc5cd"></stop>
      <stop offset=".968" stop-color="#abb3bb"></stop>
      <stop offset=".985" stop-color="#9fa7af"></stop>
      <stop offset="1" stop-color="#8a919a"></stop>
    </linearGradient>
    <linearGradient xlink:href="#bdec3ff8-d854-4edd-bccf-2fc27957860a" id="a4666ac6-5e27-4d56-8581-cfd530e02731" x1="1586.143" x2="1899.533" y1="1096.449" y2="1096.449"></linearGradient>
    <linearGradient id="a13e5647-07a9-41bd-a637-2d7a5346aee5" x1="1586.143" x2="1899.533" y1="1072.667" y2="1072.667" gradientUnits="userSpaceOnUse">
      <stop offset="0" stop-color="#b5b8bb"></stop>
      <stop offset=".029" stop-color="#adb0b4"></stop>
      <stop offset=".075" stop-color="#9599a2"></stop>
      <stop offset=".079" stop-color="#9397a0"></stop>
      <stop offset=".161" stop-color="#cbd0d7"></stop>
      <stop offset=".201" stop-color="#e1e6ed"></stop>
      <stop offset=".326" stop-color="#a1a7ad"></stop>
      <stop offset=".386" stop-color="#878d93"></stop>
      <stop offset=".47" stop-color="#7e848c"></stop>
      <stop offset=".493" stop-color="#757b84"></stop>
      <stop offset=".558" stop-color="#606770"></stop>
      <stop offset=".601" stop-color="#585f69"></stop>
      <stop offset=".641" stop-color="#5e656e"></stop>
      <stop offset=".693" stop-color="#6e757e"></stop>
      <stop offset=".751" stop-color="#888f98"></stop>
      <stop offset=".813" stop-color="#adb4bb"></stop>
      <stop offset=".86" stop-color="#ced4db"></stop>
      <stop offset=".906" stop-color="#c3c9d0"></stop>
      <stop offset=".987" stop-color="#a5acb4"></stop>
      <stop offset="1" stop-color="#9fa7af"></stop>
    </linearGradient>
    <linearGradient id="ad9bd72e-9bbe-4b70-9421-11c82d456cfc" x1="1580.788" x2="2004.133" y1="984.204" y2="1109.48" gradientUnits="userSpaceOnUse">
      <stop offset="0" stop-color="#8e9397"></stop>
      <stop offset=".047" stop-color="#a9aeb3"></stop>
      <stop offset=".109" stop-color="#c8cdd3"></stop>
      <stop offset=".162" stop-color="#dadfe6"></stop>
      <stop offset=".198" stop-color="#e1e6ed"></stop>
      <stop offset=".351" stop-color="#ccd2d9"></stop>
      <stop offset=".528" stop-color="#bcc3c9"></stop>
      <stop offset=".728" stop-color="#b3bac0"></stop>
      <stop offset="1" stop-color="#b0b7bd"></stop>
    </linearGradient>
    <linearGradient xlink:href="#bdec3ff8-d854-4edd-bccf-2fc27957860a" id="b4075121-319a-46a2-8e67-84f6302b8011" x1="1564.734" x2="1778.55" y1="1117.709" y2="1195.741"></linearGradient>
    <linearGradient xlink:href="#bdec3ff8-d854-4edd-bccf-2fc27957860a" id="a4967b07-71da-4f7c-ba24-c7dc2304b30f" x1="1970.885" x2="2351.037" y1="1660.985" y2="1660.985"></linearGradient>
    <linearGradient xlink:href="#bdec3ff8-d854-4edd-bccf-2fc27957860a" id="afcabf4c-62d0-44df-9295-b93eed7f0fa4" x1="2030.134" x2="2291.789" y1="1200.245" y2="1200.245"></linearGradient>
    <linearGradient xlink:href="#a13e5647-07a9-41bd-a637-2d7a5346aee5" id="b1c3d602-da91-4407-a505-98dbeafce32a" x1="2030.134" x2="2291.789" y1="1180.39" y2="1180.39"></linearGradient>
    <linearGradient xlink:href="#ad9bd72e-9bbe-4b70-9421-11c82d456cfc" id="a52a8dc0-4818-44aa-82fb-7ce083898693" x1="2025.663" x2="2379.121" y1="1106.53" y2="1211.125"></linearGradient>
    <linearGradient xlink:href="#bdec3ff8-d854-4edd-bccf-2fc27957860a" id="b6fda391-48f4-4d89-a882-1b675b2b234d" x1="2012.258" x2="2190.778" y1="1217.995" y2="1283.146"></linearGradient>
    <filter id="bd9f2162-9bc5-4643-93e1-29d9d957fa2c" width="1117.671" height="32766" x="217.511" y="-9142" color-interpolation-filters="sRGB" filterUnits="userSpaceOnUse">
      <feFlood flood-color="#fff" result="bg"></feFlood>
      <feBlend in="SourceGraphic" in2="bg"></feBlend>
    </filter>
    <filter id="edaef2d4-b59e-447d-a19c-c105d8c8f431" width="1117.671" height="1023.515" x="217.511" y="690.685" color-interpolation-filters="sRGB" filterUnits="userSpaceOnUse">
      <feFlood flood-color="#fff" result="bg"></feFlood>
      <feBlend in="SourceGraphic" in2="bg"></feBlend>
    </filter>
    <mask id="bd858980-755b-4650-9342-3fa6b20cfc20" width="1117.671" height="32766" x="217.511" y="-9142" maskUnits="userSpaceOnUse"></mask>
    <mask id="faa76397-6a0f-4b7c-8b87-08e73e6f8dc1" width="1117.671" height="1023.515" x="217.511" y="690.685" maskUnits="userSpaceOnUse">
      <g style="mask:url(#bd858980-755b-4650-9342-3fa6b20cfc20);filter:url(#edaef2d4-b59e-447d-a19c-c105d8c8f431)">
        <polygon points="217.511 1275.958 935.883 690.685 1335.182 1525.747 983.961 1714.2 217.511 1275.958" style="mix-blend-mode:multiply;fill:url(#b5bfdf52-4510-436d-a15d-1bd566083471)"></polygon>
      </g>
    </mask>
  </defs>
  <g style="isolation:isolate">
    <g id="e9cbcb23-2a09-4a9d-91a3-a9d3bf58346d">
      <path d="M745.57728,1096.5709l86.3352-12.0684s29.3057-42.4192,28.5964-54.5845c-.2781-4.7916-11.60188-13.1172-25.2094-21.423-.4678-.2812-.9471-.601-1.4533-.8701-8.8456-5.3521-18.5767-10.6878-26.768-15.01-8.0274-4.2028-14.5778-7.4578-17.4793-8.9028-.3933-.1766-.6971-.3381-.9502-.4726-.444-.2036-.6971-.3381-.6971-.3381l-18.466,49.5782-.0388.0119-2.2284,6.0245Z" style="fill:#4b5426"></path>
      <path d="M777.924,546.4937c26.901,144.1729,27.80538,327.2106-67.72222,499.1536a205.481,205.481,0,0,1,22.17922-7.2066,182.41212,182.41212,0,0,1,37.06588-5.9493l.0388-.0118q.2502-.013.5008-.0258a125.03725,125.03725,0,0,1,19.43152.588c13.08588,1.4684,22.77788,5.2895,27.11828,10.7471a10.97978,10.97978,0,0,1,2.5094,7.3741c-.5454,12.0829-21.2262,28.6264-73.4682,45.4079,53.8572,9.4395,90.59,6.5607,114.0836,1.1572,24.6153-5.6191,34.68892-14.0002,34.68892-14.0002s79.79558-282.5427-3.52732-569.3393C853.59018,526.5612,816.01728,537.5416,777.924,546.4937Z" style="fill:#7d8c48"></path>
      <path d="M812.50178 543.917c4.6606 20.2607 8.6618 40.6968 11.5814 61.3003 3.1856 20.5626 5.6664 41.2551 6.9243 62.0375a1137.24846 1137.24846 0 0 1-.2382 124.7588 656.11356 656.11356 0 0 1-18.2745 123.4486 579.88908 579.88908 0 0 1-42.8374 117.121l-.3681-.1701a742.361 742.361 0 0 0 39.1458-117.954 824.80658 824.80658 0 0 0 20.1195-122.6051c3.8285-41.3537 2.9631-83.0545-.89758-124.3515-3.108-41.3789-8.74482-82.4979-15.553-123.5053ZM850.97338 533.1817l7.6735 32.055 6.1384 32.3961 5.0392 32.5984c1.3983 10.9072 2.2104 21.885 3.34352 32.8174 3.45248 43.858 3.69328 87.8608 2.172 131.7834a761.09073 761.09073 0 0 1-16.25612 130.8299 666.58631 666.58631 0 0 1-39.8681 125.5875l-.376-.1509a909.62179 909.62179 0 0 0 36.3773-126.2591c9.1617-42.8409 14.7784-86.391 17.9055-130.1252 3.142-43.7734 1.4943-87.7945-3.0137-131.3873-2.5297-21.7777-4.9765-43.5388-8.0696-65.2519-3.3906-21.666-7.4006-43.2125-11.4611-64.8026Z" style="fill:#3f5605"></path>
      <path d="M849.46768,527.3426c52.3885,213.9247,24.7519,365.2841-4.0308,449.6835a.55845.55845,0,0,1-.06888.1906c-3.86262,11.3584-7.77092,21.4585-11.52172,30.4081a365.14171,365.14171,0,0,1-17.31,36.1641c-4.4205,8.0094-7.1761,12.0322-7.1761,12.0322l-40.2669,13.925c7.4174-11.9366,14.1766-24.223,20.32472-36.7043q9.82842-19.8615,17.66038-40.4271c61.60662-161.4864,36.6909-351.1142,14.0442-457.1592q-2.1081.58035-4.217,1.1566a1046.69891,1046.69891,0,0,1,13.7666,151.4026c2.2973,133.424-22.3716,235.6577-42.0235,295.2246-3.9832,12.0737-7.7546,22.3439-11.05768,30.8173-.11082.3307-.23342.6228-.383.9653-2.79722,7.2163-5.30272,13.0286-7.22152,17.4319-1.1013,2.4994-2.0111,4.516-2.7681,6.0622l-21.6409,58.0549c53.8572,9.4395,90.59,6.5607,114.0836,1.1572,81.1691-227.7236,34.1028-453.4634-3.3005-572.4421C854.06608,525.9825,851.76548,526.657,849.46768,527.3426Z" style="opacity:.3;mix-blend-mode:soft-light"></path>
      <path d="M777.924,546.4937c26.901,144.1729,27.80538,327.2106-67.72222,499.1536a205.481,205.481,0,0,1,22.17922-7.2066c107.35188-176.3509,74.26448-390.5868,57.90708-494.9084C786.17418,544.549,782.04988,545.5241,777.924,546.4937Z" style="opacity:.3;mix-blend-mode:soft-light"></path>
      <path d="M947.59248,1717.96c31.7008,36.8222,62.16992,17.7628,229.55552-3.7601,167.4503-21.5876,183.9166-28.3946,183.9166-28.3946v-25.8308a9.79934,9.79934,0,0,0-9.2252-9.7825l-413.84152-24.2876-36.56288-2.1393C909.60328,1649.0479,925.94,1692.8716,947.59248,1717.96Z" style="fill:#4f4f4f"></path>
      <polygon points="2603.434 1763.009 2596.543 1771.81 2581.606 1790.926 240.042 1790.926 214.126 1771.81 196.566 1758.875 259.38 1731.269 531.526 1710.287 746.461 1693.661 746.505 1693.661 756.729 1692.905 1135.476 1702.107 1268.127 1705.308 1279.908 1705.619 1285.154 1705.752 1349.967 1707.308 1832.159 1718.999 1832.647 1718.999 2259.761 1729.402 2544.665 1736.336 2603.434 1763.009" style="fill:#d89e1d"></polygon>
      <polygon points="2603.434 1763.009 2596.543 1771.81 214.126 1771.81 196.566 1758.875 259.38 1731.269 449.821 1647.518 2348.979 1647.518 2451.135 1693.883 2544.665 1736.336 2603.434 1763.009" style="fill:#aa7143"></polygon>
      <polygon points="2497.489 1714.922 999.753 1745.573 1032.789 1738.203 746.505 1693.661 746.461 1693.661 449.821 1647.518 2348.979 1647.518 2497.489 1714.922" style="mix-blend-mode:soft-light;opacity:.5"></polygon>
      <path d="M1372.3715,1500.1973l42.1867,32.896-7.4234,25.6052s-37.3854,36.6745-47.61,41.5646c-10.2246,4.8011-119.4481,14.5365-381.14772,23.0716-261.65608,8.5351-199.9535-229.3378-197.2424-303.7536,2.4896-67.7032,59.0794-185.506,86.1522-229.0265,2.71112-4.3564,5.1117-7.9572,7.1565-10.7133a42.97,42.97,0,0,1,5.6457-6.0902,144.48036,144.48036,0,0,1,13.3362-10.8022c4.9348-3.6008,10.4916-7.335,16.53672-11.2025,4.046-2.6671,8.35788-5.3345,12.80328-8.0462,10.7575-6.4903,22.4049-13.2471,34.1402-19.7375a.96312.96312,0,0,1,.22252-.1332c12.62528-6.9793,25.294-13.7809,37.075-19.9156,1.86667-1.0223,3.73337-1.9559,5.55667-2.9338,20.58163-10.669,37.60783-19.1151,45.20933-22.8494,2.7566-1.3335,4.3119-2.0892,4.3119-2.0892l-12.1358-46.4543-6.4456-24.5832,16.7592-36.8522,140.1187-6.8903,2.5776,52.5001,4.5789,92.2863s14.8925,8.4016,37.2529,21.6045c35.8291,21.2934,90.6411,55.2117,133.3617,87.3518,12.4473,9.38,23.8712,18.582,33.4739,27.2948,58.3675,88.9078,92.4188,193.1522,102.5099,285.883q1.60035,14.9364,2.4007,29.3839c-84.4179,42.3202-174.882,7.335-178.4375,5.957Z" style="fill:#e5e5e5"></path>
      <path d="M1514.2691,1655.2526c-2.9347,48.3213-268.3687,28.6728-378.6591,18.5817-22.6263-2.0893-38.7192-3.7343-44.6764-4.3564-60.3676,11.6914-134.473,15.9143-162.5226-.1335-28.09522-16.0478,8.57928-72.9933,37.29628-91.2192,28.71709-18.2708,33.78539-21.4269,54.41162-14.8923,20.6272,6.5349,11.9589,6.9793,78.5507,3.6898s217.1122-18.493,231.3817-23.8717v-77.8389c19.8263,6.8013,96.8652,28.9841,170.3032-6.0011C1504.0445,1489.973,1517.2917,1605.0642,1514.2691,1655.2526Z" style="fill:#f5be9b"></path>
      <path d="M1307.2339,1546.2067c14.4583-4.3476,29.2131-6.5335,43.9435-8.8983,14.8212-1.7088,29.617-3.6008,44.7138-3.3016-14.4548,4.3658-29.2122,6.5395-43.9435,8.8982C1337.1257,1544.6069,1322.329,1546.4884,1307.2339,1546.2067Z" style="fill:#dd8f6c"></path>
      <path d="M1330.0514,1465.2125a822.24084,822.24084,0,0,0-10.0331-85.3303c-2.2724-14.132-4.6973-28.2544-7.5968-42.2713a194.81367,194.81367,0,0,0-11.9871-41.0405l.0698.1003-.0829-.0907-.054-.0593-.0192-.048-2.1694-5.3864,2.8079,5.1021-.0707-.103.0907.0829.0341.0314.0392.0741a160.68424,160.68424,0,0,1,14.9206,40.5538q4.85175,21.045,8.3487,42.3568C1328.6304,1407.6037,1331.7942,1436.4417,1330.0514,1465.2125Z" style="fill:#999"></path>
      <path d="M920.57188,815.2419c.7606,3.7229.437,6.5963.8173,9.4923-.1169,2.9527.4274,5.382.75282,9.1957-3.75172-1.3364-5.376-5.3951-5.72492-8.9794C916.56448,821.3087,917.43858,817.6102,920.57188,815.2419Z" style="fill:#dd8f6c"></path>
      <g style="mask:url(#faa76397-6a0f-4b7c-8b87-08e73e6f8dc1)">
        <polygon points="217.511 1275.958 935.883 690.685 1335.182 1525.747 983.961 1714.2 217.511 1275.958" style="fill:url(#b8d54206-1653-4b54-ba43-91c2aad3e8b8)"></polygon>
      </g>
      <path d="M207.56559,1280.8904l199.2159,404.7204a12.68833,12.68833,0,0,0,9.7891,7.0015l532.69089,64.6981s2.3978-85.4431-47.8438-177.5637c-50.2416-92.185-141.5831-285.0479-199.9282-317.1378H218.97529a12.6805,12.6805,0,0,0-11.4097,18.2815Z" style="fill:#606060"></path>
      <path d="M983.96088,1714.1999l-45.963-88.2955L748.895,1262.609H701.50588l180.2863,359.9892L949.278,1757.3105l403.2591-45.5825a9.60654,9.60654,0,0,0,8.5275-9.5457v-16.377Z" style="fill:#9b9b9b"></path>
      <path d="m210.54739 1265.7854 738.71409 491.525-247.772-494.7015H218.97529A12.64816 12.64816 0 0 0 210.54739 1265.7854ZM1365.3485 1115.0042c-219.2469 219.0689-442.71672 29.5619-498.06162-24.4496 2.71112-4.3564 5.1117-7.9572 7.1565-10.7133a42.97 42.97 0 0 1 5.6457-6.0902 144.48036 144.48036 0 0 1 13.3362-10.8022c4.9348-3.6008 10.4916-7.335 16.53672-11.2025 4.046-2.6671 8.35788-5.3345 12.80328-8.0462 10.7575-6.4903 22.4049-13.2471 34.1402-19.7375a.96312.96312 0 0 1 .22252-.1332c12.62528-6.9793 25.294-13.7809 37.075-19.9156 1.86667-1.0223 3.73337-1.9559 5.55667-2.9338 20.58163-10.669 37.60783-19.1151 45.20933-22.8494 2.7566-1.3335 4.3119-2.0892 4.3119-2.0892l-12.1358-46.4543c56.9457-6.0457 115.0906-12.1361 153.0099-15.8256l4.5789 92.2863s14.8925 8.4016 37.2529 21.6045C1267.8159 1048.9458 1322.6279 1082.8641 1365.3485 1115.0042Z" style="mix-blend-mode:soft-light;opacity:.5"></path>
      <path d="M1231.9712,1027.6653c-13.2539,54.4619-49.6682,95.9105-95.4663,104.9736l-15.939,76.7594-28.4648-78.2681c-17.8153-4.7752-34.3594-14.4653-48.6426-27.9601-25.0161-23.56-43.165-58.6288-49.26033-99.2763,30.67623-16.0638,55.06513-27.8563,55.06513-27.8563l-9.5946-36.6919-6.963-26.629-2.0279-7.7336,16.7923-36.833,140.1266-6.8961,7.1256,144.7889S1209.6441,1014.4322,1231.9712,1027.6653Z" style="fill:#f5be9b"></path>
      <path d="M1231.9712,1027.6653c-13.2539,54.4619-49.6682,95.9105-95.4663,104.9736l-15.939,76.7594-28.4648-78.2681c-17.8153-4.7752-34.3594-14.4653-48.6426-27.9601,26.7601-7.904,56.2699-25.0677,72.4553-61.5595,22.7943-51.4157-34.5486-85.2234-76.2451-102.265l-6.963-26.629,117.1064-49.6032,26.8569-11.3805c.3673,1.1392,1.7476,4.7652,3.7349,9.875,2.1908,5.6336,5.0955,13.1015,8.2504,21.1355l6.068,123.2994S1209.6441,1014.4322,1231.9712,1027.6653Z" style="mix-blend-mode:soft-light;opacity:.5"></path>
      <path d="M955.99028,1612.9111l-7.2586-87.7927,81.39592,9.7304s19.1771,28.8271,19.3984,30.4207.268,23.7874.268,23.7874l-5.8845,4.0658-48.84,14.3621S975.41078,1616.1706,955.99028,1612.9111Z" style="fill:#932a1f"></path>
      <path d="M1044.9595,978.1182l18.5034,627.4048s-11.5637,5.5985-32.3607,8.981c-18.2807,2.9469-43.8552,4.2055-75.11812-1.5999,25.1884-1.8627,96.88292-23.7277,50.73292-41.7077a129.41608,129.41608,0,0,0-22.34272-6.3334l-.0022-.0445c-.5388-.1066-1.12308-.2115-1.6619-.3186a201.22413,201.22413,0,0,0-30.9996-3.1479c-2.3615-.062-4.72358-.1234-6.9919-.1009-6.0563-.0578-11.873.2284-17.1119.4863-5.6346.3664-10.6404.8349-14.89,1.3108-8.5855,1.0017-13.8317,2.0162-13.8317,2.0162l-18.7948-491.3301a141.83962,141.83962,0,0,1,13.3552-10.8046c4.8973-3.5791,10.4546-7.3243,16.4954-11.1824,4.0537-2.6477,8.3714-5.3523,12.8224-8.0635,10.76272-6.4941,22.4051-13.2091,34.1468-19.7063a.97166.97166,0,0,1,.2156-.1443c12.6076-6.9847,25.3128-13.7972,37.07249-19.9394,1.86583-.9817,3.7332-1.919,5.5544-2.8991C1020.3241,990.3239,1037.3555,981.8751,1044.9595,978.1182Z" style="fill:#c45f4f"></path>
      <path d="M984.37478,1564.8633c-6.5151-90.0721-10.5512-180.2698-15.9132-270.3995l-6.0485-135.2961q-3.27105-67.63575-5.2878-135.3344,4.7523,67.5612,8.3356,135.1809l7.57412,135.2185,6.04328,135.2969Q982.35458,1497.16415,984.37478,1564.8633Z" style="fill:#932a1f"></path>
      <path d="m909.94088 1051.7473 17.6659 509.9901c-5.6346.3664-10.6404.8349-14.89 1.3108l-19.2713-500.1185C898.34278 1059.3506 903.90008 1055.6054 909.94088 1051.7473ZM981.992 1529.1073l1.43118 29.0818c-.2041 2.1909-.4103 4.3378-.713 6.3108a201.22413 201.22413 0 0 0-30.9996-3.1479c-2.3615-.062-4.72358-.1234-6.9919-.1009l-21.9554-517.5673c10.76272-6.4941 22.4051-13.2091 34.1468-19.7063ZM1044.9595 978.1182l18.5034 627.4048s-11.5637 5.5985-32.3607 8.981l-.8983-17.3584-3.1742-62.6887-27.27713-533.4622C1020.3241 990.3239 1037.3555 981.8751 1044.9595 978.1182Z" style="opacity:.3;mix-blend-mode:soft-light"></path>
      <circle cx="802.546" cy="593.544" r="69.838" style="fill:#7d8c48" transform="rotate(-45 802.546 593.544)"></circle>
      <path d="M871.98188,586.1894a69.83465,69.83465,0,0,1-111.9185,62.7821c15.6433-15.6141,24.3941-42.1026,21.328-70.988a99.44147,99.44147,0,0,0-15.2837-44.0633,69.90234,69.90234,0,0,1,105.8742,52.2692Z" style="opacity:.3;mix-blend-mode:soft-light"></path>
      <path d="M1388.1797,447.0226c-17.7296,41.0039-53.6337-92.8938-274.3246-128.9327-220.72942-35.9916-316.16522,16.2166-316.16522,16.2166s-29.6587,8.8861-38.1597-4.8604c-.21318-.3685-.4261-.7372-.6436-1.1487-7.1597-13.8022,4.9766-34.6078,36.2463-38.1444-37.3162-30.9009,15.7366-56.0933,25.8932-58.6927-18.563-24.5889,7.2058-44.3207,27.5804-46.4834-13.218-26.2429,28.0217-64.4393,74.0382-19.5522,3.0135-15.8383,24.3376-11.1031,30.6996-1.1288,2.2569-27.0597,52.90352-40.5209,61.86792,14.0371,5.6546-22.8997,39.2712-30.9455,55.4258-12.6645-4.0533-58.2525,95.5431-95.4277,101.7837,11.2776.0431-.0046.0815-.0522.1246-.0567,28.6778-15.2589,39.5698,5.4498,36.8809,22.2968,36.5308-10.485,44.1942,15.4349,43.9226,30.895,27.7432-2.7711,51.8814,6.3597,32.484,49.6708,50.6096-11.7623,81.9821,11.4669,55.6935,68.0717,22.0792-6.169,25.8052,8.8668,22.7248,25.7121C1385.1244,374.0153,1405.9521,406.0143,1388.1797,447.0226Z" style="fill:#2a323f"></path>
      <path d="M855.51748 248.0895c3.8936 12.2403-10.3897 32.8081-25.7458 37.6928s-30.961-1.0783-34.8546-13.3187 5.3986-26.1229 20.7547-31.0076S851.62388 235.8491 855.51748 248.0895ZM879.98528 198.3635c3.6259 11.3987-9.6754 30.5523-23.9756 35.1011s-28.8322-1.0041-32.4581-12.4029 5.02742-24.3268 19.3277-28.8756S876.35938 186.9647 879.98528 198.3635Z" style="fill:#3d4654"></path>
      <path d="M919.49078,191.1597c-6.592,9.9813-29.8504,11.6624-42.3723,3.3925s-17.3291-23.0654-10.7371-33.0466,22.0868-11.3685,34.60862-3.0986S926.08268,181.1785,919.49078,191.1597Z" style="fill:#3d4654"></path>
      <path d="M1388.1797,447.0226c-17.7296,41.0039-53.6337-92.8938-274.3246-128.9327-220.72942-35.9916-316.16522,16.2166-316.16522,16.2166s-29.6587,8.8861-38.1597-4.8604c-.21318-.3685-.4261-.7372-.6436-1.1487,11.5091-2.9605,33.3758-11.5412,74.2468-31.9196,101.2317-50.4326,201.00022-72.0639,283.07732-68.3009,40.9718,1.8669,53.7888-24.4011,56.3356-51.1875,28.6778-15.2589,39.5698,5.4498,36.8809,22.2968,36.5308-10.485,44.1942,15.4349,43.9226,30.895,27.7432-2.7711,51.8814,6.3597,32.484,49.6708,50.6096-11.7623,81.9821,11.4669,55.6935,68.0717,22.0792-6.169,25.8052,8.8668,22.7248,25.7121C1385.1244,374.0153,1405.9521,406.0143,1388.1797,447.0226Z" style="mix-blend-mode:soft-light;opacity:.25"></path>
      <path d="M1403.8224,464.5753c3.4151,26.8489-8.948,134.7898-20.0823,165.4436a163.9155,163.9155,0,0,1-19.3747,37.7878c-.4138.609-.8318,1.175-1.2067,1.7367a88.90053,88.90053,0,0,1-5.9847,7.5031l-34.7079,28.0704s-426.88142-18.1947-458.14422-40.3923c-30.5067-21.6257-116.6886-162.7489-109.1226-289.2634a26.94145,26.94145,0,0,1,8.0345-17.6755,185.56819,185.56819,0,0,1,28.3485-22.0482,1.39118,1.39118,0,0,1,.24872-.1135c61.99018-40.0947,177.47588-77.8695,311.9561-89.4495a37.57893,37.57893,0,0,1,17.6298,2.6928C1274.9772,312.2016,1400.462,438.2421,1403.8224,464.5753Z" style="fill:#7d8c48"></path>
      <path d="M1293.3611,707.3615s39.4328-61.1676,74.7947-44.5098,29.137,86.2069-6.4244,119.7484-81.2244,32.0099-72.622-27.1607S1293.3611,707.3615,1293.3611,707.3615Z" style="fill:#f5be9b"></path>
      <path d="M1301.8048,744.6568a57.3345,57.3345,0,0,1,13.0591-17.5784,64.07056,64.07056,0,0,1,18.6391-12.3752c7.0551-2.7608,16.1401-4.5455,24.4809-.6673,8.4465,3.8852,11.9138,12.4511,12.1598,19.6196-5.3419-5.4239-10.2774-9.419-15.4378-10.0462-5.0428-.6368-10.6132.6708-16.3416,3.108C1326.7541,731.4939,1315.3262,738.7313,1301.8048,744.6568Z" style="fill:#dd8f6c"></path>
      <path d="M1293.3611,707.3615s39.4328-61.1676,74.7947-44.5098,29.137,86.2069-6.4244,119.7484-81.2244,32.0099-72.622-27.1607S1293.3611,707.3615,1293.3611,707.3615Z" style="mix-blend-mode:soft-light;opacity:.5"></path>
      <path d="M1318.898,671.5031c-11.7403,61.7981-25.8837,113.2449-53.4925,155.7755-22.3327,34.494-53.5443,63.1494-99.3854,86.6634-88.6339,45.4439-210.50852,19.346-273.79832-24.0551l-.0046-.043-.043.0046c-4.5481-3.1252-8.7524-6.2869-12.665-9.5663a118.206,118.206,0,0,1-12.2868-11.7364c-49.4668-54.8664-56.9463-88.065-9.2-124.3438-1.611-13.1304-3.2971-26.5571-4.92638-39.8593-10.61562-84.8544-21.048-167.1635-21.048-167.1635a338.83765,338.83765,0,0,1,49.17788-57.5999c16.29512-15.2049,35.9007-29.9356,57.4952-39.4435,1.37292-.5806,2.7888-1.1655,4.2046-1.7503C1098.4011,477.1739,1248.7442,579.4064,1318.898,671.5031Z" style="fill:#f5be9b"></path>
      <path d="M983.45278 596.1782c-12.5397 53.45-85.4023 90.2214-130.35678 108.1645-10.61562-84.8544-21.048-167.1635-21.048-167.1635a338.83765 338.83765 0 0 1 49.17788-57.5999C928.13008 502.1162 995.59337 544.2919 983.45278 596.1782ZM879.50918 880.2822a118.206 118.206 0 0 1-12.2868-11.7364c-49.4668-54.8664-56.9463-88.065-9.2-124.3438C858.02238 744.202 956.82078 828.9112 879.50918 880.2822Z" style="mix-blend-mode:soft-light;fill:#fff;opacity:.7"></path>
      <path d="M942.90518,438.3914c53.98009-24.125,110.04762-43.5423,167.14092-59.1389,28.6818-7.2557,57.5155-14.2131,86.8768-18.3016,29.303-4.166,58.9888-6.5055,88.5238-4.562-29.5864-.3411-58.9417,3.1332-88.0048,7.8462-29.09,4.7427-57.7963,11.6355-86.2845,19.1896-28.5763,7.2959-56.7113,16.2316-84.7712,25.3532C998.383,418.0765,970.46878,427.738,942.90518,438.3914Z" style="fill:#3f5605"></path>
      <path d="M1056.2901 406.2282a653.60745 653.60745 0 0 1 90.9784 15.1892 781.17656 781.17656 0 0 1 88.6197 26.0519c28.7203 11.2255 56.7584 24.2524 83.318 39.9615 26.3388 16.0589 50.8407 35.1883 71.6292 57.9159-22.0115-21.5448-46.8675-39.6379-73.0929-55.4421-26.625-15.1927-54.6832-27.663-83.3659-38.3957a777.59335 777.59335 0 0 0-87.778-27.3054C1116.7837 417.0176 1086.7105 410.649 1056.2901 406.2282ZM764.43488 469.5697c32.0306-31.4758 68.9426-57.8792 108.1609-79.834a570.20457 570.20457 0 0 1 124.13939-52.3105l16.216-4.7139 16.529-3.4691c11.0537-2.1127 21.9766-4.9729 33.128-6.4671 22.3516-2.6789 44.6265-6.1105 67.1778-6.0302 22.4878-1.5998 44.938.2181 67.3733 1.5928 11.2561.3036 22.2897 2.7093 33.3835 4.4164l33.2178 5.4649c-44.3866-6.3485-89.1003-11.4785-133.8594-8.6016-22.4267.157-44.5463 3.8189-66.7147 6.714-11.0607 1.6024-21.8867 4.5682-32.8357 6.7821l-16.3686 3.6174-16.05373 4.8394a566.62564 566.62564 0 0 0-123.93879 50.6689c-9.8369 5.3315-19.3108 11.3137-28.9889 16.9408-9.3981 6.0703-18.7744 12.2051-27.9692 18.5877C798.66018 440.566 780.83578 454.2514 764.43488 469.5697Z" style="fill:#3f5605"></path>
      <path d="M867.40038 608.4815c1.3704-11.1357 8.9462-20.0331 18.4071-25.4797 9.49752-5.3611 22.1353-6.5064 31.5622-.5199-5.1291 2.4869-9.4984 3.8931-13.5973 5.9185a130.63178 130.63178 0 0 0-11.6949 5.9438C884.33328 598.4588 877.11068 603.3663 867.40038 608.4815ZM1125.1097 581.1255c-12.008-5.7999-20.4448-11.3119-29.4835-16.1557-4.3301-2.6771-8.8259-4.8788-13.5258-7.3744-4.7322-2.6143-9.7932-4.7121-15.7327-8.3191a31.29836 31.29836 0 0 1 18.9131-4.7932 41.27229 41.27229 0 0 1 18.8363 5.4361 45.30108 45.30108 0 0 1 14.3919 12.9701C1122.2032 568.1388 1124.9474 574.2379 1125.1097 581.1255Z" style="fill:#2a323f"></path>
      <path d="M879.14458,677.4121c-3.6178-29.297,5.5961-54.5465,20.5787-56.3963,14.9834-1.8501,30.0616,20.4003,33.6793,49.697,3.617,29.2973-5.5969,54.547-20.5794,56.3968C897.83978,728.9597,882.76158,706.7093,879.14458,677.4121Z" style="mix-blend-mode:soft-light;opacity:.5"></path>
      <ellipse cx="907.19" cy="689.784" rx="16.491" ry="32.245" style="fill:#2a323f" transform="rotate(-7.039 907.19 689.785)"></ellipse>
      <path d="M895.90868 675.2438c.6229 5.0452 3.2196 8.8769 5.7997 8.5583s4.1669-4.6668 3.544-9.712-3.2196-8.8768-5.7998-8.5583S895.28578 670.1986 895.90868 675.2438ZM905.57148 688.229c.3088 2.5012 1.5961 4.4007 2.8752 4.2428s2.0657-2.3136 1.7569-4.8147-1.5961-4.4007-2.8752-4.2427S905.26268 685.7279 905.57148 688.229Z" style="fill:#fff"></path>
      <path d="M1063.3597,648.9136c-4.4646-36.1543,6.906-67.3137,25.3954-69.5965,18.4904-2.2831,37.0978,25.1752,41.5623,61.3292,4.4636,36.1546-6.9069,67.3143-25.3963,69.5971C1086.4307,712.5265,1067.8233,685.0682,1063.3597,648.9136Z" style="mix-blend-mode:soft-light;opacity:.5"></path>
      <ellipse cx="1097.97" cy="664.182" rx="20.35" ry="39.792" style="fill:#2a323f" transform="rotate(-7.039 1097.97 664.182)"></ellipse>
      <path d="M1084.0476 646.2378c.7688 6.2261 3.9732 10.9546 7.1573 10.5615s5.1422-5.7591 4.3734-11.9852-3.9731-10.9546-7.1572-10.5614S1083.2789 640.0117 1084.0476 646.2378ZM1095.9722 662.2624c.3811 3.0865 1.9696 5.4307 3.5481 5.2358s2.5493-2.8551 2.1682-5.9416-1.9697-5.4307-3.5482-5.2358S1095.5911 659.1758 1095.9722 662.2624Z" style="fill:#fff"></path>
      <path d="M1318.898,671.5031c-11.7403,61.7981-25.8837,113.2449-53.4925,155.7755-90.5619,109.5911-207.6226,128.8416-340.29182,76.8084,91.27152,28.9553,228.40862.2275,269.58862-75.3888,46.4836-85.4383,33.4648-170.82-21.5969-246.0442-55.066-75.2675-234.37982-142.4752-234.37982-142.4752l-.0045-.043c1.37292-.5806,2.7888-1.1655,4.2046-1.7503C1098.4011,477.1739,1248.7442,579.4064,1318.898,671.5031Z" style="mix-blend-mode:soft-light;opacity:.5"></path>
      <path d="M1403.8224 464.5753c3.4151 26.8489-8.948 134.7898-20.0823 165.4436a168.42591 168.42591 0 0 1-16.0638 32.8397s-7.2015-4.9323-20.206-1.9218c-10.0474 1.4918-26.7867 13.4629-30.0071 17.9343 4.0935-12.3487 6.5209-29.7474-5.8612-47.8456-40.5508-45.8148-106.3474-132.8969-295.6576-169.7891 144.6306 4.5998 315.5157 76.3537 315.5157 76.3537-20.5228-17.2522-76.1982-80.24-223.5188-123.2848 130.0496 18.7533 227.2068 84.7277 227.2068 84.7277s-62.0374-111.867-147.0274-111.5391c-85.033.3325-153.7718 25.5816-240.24422 48.8009 34.1784-17.4945 224.73562-109.3149 109.20772-98.9643C911.63938 358.6376 802.49828 438.1645 780.84 454.8516c8.04668-6.505 27.45508-21.8666 48.49458-37.01 52.68842-35.5864 299.043-149.6739 180.77492-142.2058-114.77692 7.1847-212.593 57.0375-218.2785 59.9882 61.99018-40.0947 177.47588-77.8695 311.9561-89.4495a37.57893 37.57893 0 0 1 17.6298 2.6928C1274.9772 312.2016 1400.462 438.2421 1403.8224 464.5753ZM832.048 537.1792S803.92858 588.39 846.04938 648.1569C837.37448 579.3021 832.048 537.1792 832.048 537.1792Z" style="opacity:.3;mix-blend-mode:soft-light"></path>
      <circle cx="1193.356" cy="716.362" r="15.416" style="fill:#2a323f" transform="rotate(-65.953 1193.356 716.362)"></circle>
      <path d="M1094.0079,789.884c-.3557,18.3805-3.1209,35.4635-8.0595,50.4793-21.3636,65.8973-82.7157,90.3033-149.88522-6.3071-4.65-9.127-.583-5.1511.032-6.7528,4.3414.4851,8.529.9332,12.6047,1.2408,32.985,2.7786,59.04412,1.0893,79.63922-3.1413l.1988-.0167C1054.5662,820.9491,1079.7711,810.8811,1094.0079,789.884Z" style="fill:#2a323f"></path>
      <path d="M1094.0079,789.884c-.3557,18.3805-3.1209,35.4635-8.0595,50.4793-21.1371,16.8263-47.8829,30.5743-73.8645,24.257a138.7196,138.7196,0,0,1-17.40353-5.388,122.563,122.563,0,0,1-44.05859-28.6495c-.659-.6945-1.31678-1.3894-1.9219-2.0386,32.985,2.7786,59.04412,1.0893,79.63922-3.1413l.1988-.0167C1054.5662,820.9491,1079.7711,810.8811,1094.0079,789.884Z" style="fill:#fff"></path>
      <path d="M1094.0079,789.884c-.3557,18.3805-3.1209,35.4635-8.0595,50.4793-21.1371,16.8263-47.8829,30.5743-73.8645,24.257a138.7196,138.7196,0,0,1-17.40353-5.388c19.67043-2.153,52.35473-8.2993,60.84993-26.2138-40.9683,12.2927-82.3573,4.1198-104.90852-2.4357-.659-.6945-1.31678-1.3894-1.9219-2.0386,32.985,2.7786,59.04412,1.0893,79.63922-3.1413l.1988-.0167C1054.5662,820.9491,1079.7711,810.8811,1094.0079,789.884Z" style="fill:#e2e2e2"></path>
      <path d="M979.49,832.7246q-14.843,0-31.02572-1.3608c-4.08228-.307-8.3042-.7606-12.6797-1.2491-5.6873-.6281-11.584-1.3887-17.6412-2.2889l.8234-5.5967c5.9875.8863,11.8144,1.6469,17.4389,2.261,4.3126.4885,8.4647.9282,12.5052,1.2352,30.0627,2.5262,56.57342,1.4934,78.85532-3.0914,52.819-10.949,68.1644-38.2413,72.3165-49.4695l5.3036,1.9679c-4.4801,12.1074-20.8792,41.5142-76.2733,53.0215A249.01907,249.01907,0,0,1,979.49,832.7246Z" style="fill:#dd8f6c"></path>
      <path d="M1083.4909,761.2941c8.0495.3803,15.3715,4.7357,21.0091,10.6324a29.99512,29.99512,0,0,1,5.8714,10.744,23.28263,23.28263,0,0,1,.3228,11.9486c-1.4969-3.729-2.4887-7.2374-4.3641-10.3392a36.08214,36.08214,0,0,0-6.0764-8.6279C1095.764,770.1225,1089.7914,766.0184,1083.4909,761.2941Z" style="fill:#dd8f6c"></path>
      <path d="M1075.1541,806.3523c-53.121,27.4166-110.47962,26.3763-127.015,25.3932-3.0207-.2012-4.6906-.3715-4.6906-.3715s4.7901-51.1061,41.0342-66.3422a50.08223,50.08223,0,0,1,10.828-3.2358C1041.4317,753.2053,1067.8436,777.6132,1075.1541,806.3523Z" style="fill:#3d4654"></path>
      <path d="M984.48268,765.0318c8.68139,20.7693,16.73332,58.9495-36.3436,66.7137-3.0207-.2012-4.6906-.3715-4.6906-.3715S948.23858,780.2679,984.48268,765.0318Z" style="mix-blend-mode:soft-light;opacity:.25;fill:#fff"></path>
      <path d="M970.25918,747.8936c-3.3623-5.4681-4.4043-12.008-2.7211-17.4465,2.96892-9.7043,12.8411-16.6206,20.7042-20.759C992.95687,721.7502,995.76557,740.8392,970.25918,747.8936Z" style="mix-blend-mode:soft-light;fill:#fff;opacity:.7"></path>
      <path d="M1017.7741,749.1526c-6.5693,6.9505-15.2669,12.7817-25.97873,13.7116-10.744,1.3555-22.24869-5.5068-26.79419-15.6603a25.459,25.459,0,0,1-1.7324-16.6529,28.502,28.502,0,0,1,8.8503-13.4708c7.678-7.0525,17.4337-9.9511,26.71492-12.0368-8.14383,5.2102-16.21072,10.041-21.93032,16.7925-5.9351,6.6172-7.739,14.4661-4.0649,21.7314a21.83931,21.83931,0,0,0,18.86589,12.6779C1000.2218,756.8323,1009.1497,753.2812,1017.7741,749.1526Z" style="fill:#dd8f6c"></path>
      <path d="M1503.733,1457.5659c-74.4158,37.2969-153.5439,14.5365-173.6817,7.6462.2225-54.2783-14.0915-121.8925-18.4034-139.0961a184.25492,184.25492,0,0,0-10.891-29.6955c3.1115,3.4231,103.2663,113.1798,200.5754,131.7615Q1502.93265,1443.1184,1503.733,1457.5659Z" style="mix-blend-mode:soft-light;opacity:.5"></path>
      <path d="M1514.2691,1655.2526c-2.9347,48.3213-268.3687,28.6728-378.6591,18.5817,180.7947-37.7414,202.2207-107.8008,194.4413-152.9658v-55.6564c19.8263,6.8013,96.8652,28.9841,170.3032-6.0011C1504.0445,1489.973,1517.2917,1605.0642,1514.2691,1655.2526Z" style="mix-blend-mode:soft-light;opacity:.5"></path>
      <path d="M1742.8384,1665.5099c-125.7314,0-227.6582-14.0329-227.6582-31.3486v34.2991c0,17.3157,101.9268,34.9576,227.6582,34.9576s227.6575-17.6419,227.6575-34.9576v-34.2991C1970.4959,1651.477,1868.5697,1665.5099,1742.8384,1665.5099Z" style="fill:#c1c1c1"></path>
      <path d="M1742.8384,1696.7798c-125.7314,0-227.6582-17.6419-227.6582-34.9576v6.6382c0,17.3157,101.9268,34.9576,227.6582,34.9576s227.6575-17.6419,227.6575-34.9576v-6.6382C1970.4959,1679.1379,1868.5697,1696.7798,1742.8384,1696.7798Z" style="mix-blend-mode:soft-light;opacity:.8"></path>
      <path d="M1556.9648 1657.9658v22.9439c0 5.3554 5.0359 7.9484 7.6935 8.476 20.3977 4.0193 46.2082 7.4655 75.6929 9.9344.4823.0393 6.3781.515 6.8597.5537a7.15985 7.15985 0 0 1-5.4135-6.9638v-24.547c0-4.7163 5.9478-5.7069 5.9478-5.7069-.4556-.0327-6.8596-.4556-7.316-.4883-30.1425-2.098-56.4486-5.0879-77.0603-8.7169C1561.1668 1653.0666 1556.9648 1654.4282 1556.9648 1657.9658ZM1859.3646 1661.0991s6.6642 1.0033 6.6642 7.6875v22.7292c0 4.6122-6.6642 6.5275-6.6642 6.5275.3968-.0394 7.4587-.7625 7.8563-.8079 28.9117-3.088 53.2565-7.1532 71.0345-11.7194 2.2021-.5671 6.3067-3.5376 6.3067-8.0392v-20.944c0-4.0005-4.5862-6.6709-7.0685-6.1112-17.772 4.0266-41.934 7.4594-70.5596 10.0264C1866.6345 1660.474 1859.664 1661.0731 1859.3646 1661.0991Z" style="mix-blend-mode:soft-light;fill:#fff;opacity:.7"></path>
      <path d="M1742.8384,1254.9874c-125.7314,0-227.6582-14.0389-227.6582-31.3546v409.6613c0,3.557,4.3127,6.9771,12.2478,10.1692,30.6642,12.3258,115.5228,23.8178,215.4104,23.8178,99.8942,0,184.7462-11.492,215.4104-23.8178,7.935-3.1921,12.2471-6.6122,12.2471-10.1692V1223.6328C1970.4959,1240.9485,1868.5697,1254.9874,1742.8384,1254.9874Z" style="fill:#b2b2b2"></path>
      <path d="M1958.2488,1639.4634c-30.6642,12.3192-115.5162,23.8172-215.4104,23.8172-99.8876,0-184.7462-11.498-215.4104-23.8172-7.9351-3.192-12.2478-6.6122-12.2478-10.1691v3.9998c0,3.557,4.3127,6.9771,12.2478,10.1692,30.6642,12.3258,115.5228,23.8178,215.4104,23.8178,99.8942,0,184.7462-11.492,215.4104-23.8178,7.935-3.1921,12.2471-6.6122,12.2471-10.1692v-3.9998C1970.4959,1632.8512,1966.1838,1636.2714,1958.2488,1639.4634Z" style="mix-blend-mode:multiply;opacity:.3;fill:url(#bdec3ff8-d854-4edd-bccf-2fc27957860a)"></path>
      <path d="M1899.5334,1110.1426c0,11.9149-70.1553,21.5764-156.695,21.5764s-156.6884-9.6548-156.6951-21.5764l-70.9631,113.4902c0,17.3157,101.9268,31.3546,227.6582,31.3546s227.6575-14.0389,227.6575-31.3546Z" style="fill:#c1c1c1"></path>
      <path d="M1586.1634,1061.1788l-.0201.0066v48.9572h0c.0067,11.9216,70.1554,21.5764,156.6951,21.5764s156.695-9.6615,156.695-21.5764v-48.9638c-32.2992,7.2506-90.3962,12.085-156.695,12.085C1676.5529,1073.2638,1618.4686,1068.4294,1586.1634,1061.1788Z" style="fill:#9b9b9b"></path>
      <path d="M1586.1634,1061.1788l-.0201.0066v48.9572h0c.0067,11.9216,70.1554,21.5764,156.6951,21.5764s156.695-9.6615,156.695-21.5764v-48.9638c0,35.2697-31.3353,67.6537-156.695,67.6537C1617.4853,1128.8325,1586.1634,1101.4517,1586.1634,1061.1788Z" style="mix-blend-mode:multiply;opacity:.3;fill:url(#a4666ac6-5e27-4d56-8581-cfd530e02731)"></path>
      <path d="M1586.1634,1061.1788l-.0201.0066v1.3943c.0261,11.9149,70.1687,21.5764,156.6951,21.5764,86.5397,0,156.695-9.6615,156.695-21.5831v-1.3942c-32.2992,7.2506-90.3962,12.085-156.695,12.085C1676.5529,1073.2638,1618.4686,1068.4294,1586.1634,1061.1788Z" style="mix-blend-mode:multiply;opacity:.5;fill:url(#a13e5647-07a9-41bd-a637-2d7a5346aee5)"></path>
      <path d="M1930.269,1038.8212l-39.8367-39.4591c5.6223,13.5833-60.279,25.4328-147.5939,25.5109-87.3082.0787-153.2422-11.6541-147.672-25.2434h0l-39.7126,39.5238h-.0067c-6.0585,6.0325-1.3488,12.019,12.6255,17.4004l-.02.0194.0259-.0067c28.5535,10.9903,93.9598,18.9707,174.8313,18.8927,80.8914-.0654,146.2784-8.1699,174.7925-19.2049l-.0133-.0133C1931.6499,1050.8342,1936.3469,1044.8404,1930.269,1038.8212Z" style="fill:url(#ad9bd72e-9bbe-4b70-9421-11c82d456cfc)"></path>
      <path d="M1930.269,1038.8212l-39.8367-39.4591c5.6223,13.5833-60.279,25.4328-147.5939,25.5109-87.3082.0787-151.262-11.9216-145.6918-25.5109l-1.9802.2675-39.7126,39.5238h-.0067c-6.0585,6.0325-1.3488,12.019,12.6255,17.4004l-.02.0194.0259-.0067c28.5535,10.9903,93.9598,18.9707,174.8313,18.8927,80.8914-.0654,146.2784-8.1699,174.7925-19.2049l-.0133-.0133C1931.6499,1050.8342,1936.3469,1044.8404,1930.269,1038.8212Z" style="fill:#c1c1c1"></path>
      <path d="M1556.9648 1262.192v367.0896c0 13.3024 11.7982 18.345 18.397 19.4457 18.3123 3.0486 40.1169 5.7263 64.449 7.7716.8399.0654 13.8696 1.0687 14.7161 1.1401 0 0-12.1885-3.2441-12.1885-16.3971V1272.6613c0-16.9834 14.3251-20.0847 14.3251-20.0847-7.0358-.4557-20.3969-1.2962-23.3675-1.5244-23.016-1.7264-43.6084-3.9738-60.8981-6.6315C1566.9124 1243.5735 1556.9648 1246.0364 1556.9648 1262.192ZM1843.5731 1251.652s11.4787 2.3708 11.4787 15.4978v373.9426c0 12.7035-11.4787 16.788-11.4787 16.788.6451-.0653 23.7518-2.0913 24.397-2.1567 28.358-3.0159 49.7776-6.2279 67.3407-10.5273 7.3814-1.8112 9.2513-5.4855 9.2513-15.6546V1254.8046c0-7.8303-2.567-15.9474-11.2966-13.9869-16.8533 3.7851-38.9701 6.7884-64.7351 8.847C1860.3151 1250.3225 1844.407 1251.5799 1843.5731 1251.652ZM1626.6705 1076.2991v41.5631c0 5.7129-4.3061 6.0778-4.3061 6.0778 2.0393.3129 8.4494 1.2969 10.6121 1.5897 12.6774 1.7138 27.4594 3.1333 43.7652 4.176.2408.0193 6.8663.4236 7.1071.4363a8.61988 8.61988 0 0 1-6.3907-8.6382v-39.289C1665.706 1082.0647 1640.9896 1079.6025 1626.6705 1076.2991ZM1828.7524 1080.2142v40.1102c0 7.0425-7.5635 8.5081-7.5635 8.5081.2348-.0194 8.0324-.6905 8.2673-.7098a422.52639 422.52639 0 0 0 42.3442-5.7196c.4236-.0848 7.7136-1.7138 8.1239-1.7985 0 0-6.8664-.9186-6.8664-6.28V1074.065C1860.8108 1076.9768 1845.1561 1079.0161 1828.7524 1080.2142Z" style="mix-blend-mode:soft-light;fill:#fff;opacity:.7"></path>
      <g style="mix-blend-mode:screen">
        <path d="m1641.8955 1018.6063-26.1366 48.9505c19.6151 2.9119 43.0614 5.166 69.3215 6.5082l4.1432-50.729C1671.4256 1022.2547 1655.4521 1020.6323 1641.8955 1018.6063ZM1844.1202 1018.3715l20.0127 49.8104c21.974-3.0353 39.5825-6.8664 51.5174-11.1725l-37.8694-46.2661C1869.7678 1013.6225 1858.2958 1016.2155 1844.1202 1018.3715Z" style="mix-blend-mode:soft-light;fill:#fff;opacity:.7"></path>
      </g>
      <path d="M1970.4959,1223.6328a5.90938,5.90938,0,0,1-1.6477,4.0452c-1.9412,2.3842-6.0912,5.0292-11.8889,7.4334-11.6354,4.8144-29.5702,9.2766-51.4261,12.8402-21.8759,3.5569-47.6736,6.5602-75.4586,8.4427-27.7777,1.8892-57.4973,2.8925-87.2429,2.9772-29.7196-.0713-59.4518-1.088-87.2301-2.9772-27.7843-1.8698-53.5822-4.8858-75.4581-8.436-21.8625-3.5636-39.7906-8.0325-51.426-12.8469-5.7977-2.4042-9.9477-5.0492-11.8823-7.4334a5.90905,5.90905,0,0,1-1.655-4.0452,6.00924,6.00924,0,0,0,1.8438,3.9345c2.0193,2.2868,6.2674,4.6903,12.0717,6.9384,11.6741,4.5076,29.6996,8.286,51.5108,11.524,21.8366,3.2574,47.621,5.6089,75.3012,7.3547,27.681,1.7331,57.3092,2.5803,86.9374,2.5016,29.6081.0847,59.2497-.7618,86.9299-2.5016,13.8368-.8986,27.2047-1.8759,39.8367-3.1006,12.6381-1.2121,24.5403-2.6451,35.4586-4.2474,21.8112-3.2381,39.8433-7.0165,51.5174-11.5307,5.8044-2.2481,10.0518-4.6516,12.065-6.9384A5.91241,5.91241,0,0,0,1970.4959,1223.6328Z" style="mix-blend-mode:soft-light;fill:#fff;opacity:.7"></path>
      <path d="M1899.5334,1110.1426c102.6627,220.4069-402.2746,123.7114-384.3532,113.4902,0,17.3157,101.9268,31.3546,227.6582,31.3546s227.6575-14.0389,227.6575-31.3546Z" style="mix-blend-mode:multiply;opacity:.3;fill:url(#b4075121-319a-46a2-8e67-84f6302b8011)"></path>
      <path d="M1626.6705 1124.6245h0l-61.217 118.6628c23.439 4.0059 50.7483 7.0158 85.6599 9.0484l26.338-122.5846C1658.0711 1128.5263 1640.8075 1126.7738 1626.6705 1124.6245ZM1823.7492 1128.6891s4.5015.3128 4.8664 3.0299c.3649 2.7231 16.215 119.9523 16.215 119.9523 33.3479-2.7104 76.5068-7.5895 96.1158-12.1951l-66.0907-117.3667C1863.1496 1124.5197 1841.3777 1127.0934 1823.7492 1128.6891Z" style="mix-blend-mode:soft-light;fill:#fff;opacity:.7"></path>
      <path d="M1742.6036,1644.1084c-189.7494,17.2509-227.4234-10.8143-227.4234-10.8143,0,3.557,4.3127,6.9771,12.2478,10.1692,30.6642,12.3258,115.5228,23.8178,215.4104,23.8178,99.8942,0,184.7462-11.492,215.4104-23.8178,7.935-3.1921,12.2471-6.6122,12.2471-10.1692v-329.617C1970.4959,1478.6324,1943.5782,1625.8414,1742.6036,1644.1084Z" style="opacity:.3;mix-blend-mode:soft-light"></path>
      <path d="M1890.4323,1000.216c5.6282,13.5826-60.273,25.4388-147.5939,25.5175-87.3209.0781-153.2615-11.6547-147.672-25.2507,5.192-12.632,71.1326-22.2928,147.6066-22.3642C1819.241,978.0532,1885.2077,987.5973,1890.4323,1000.216Z" style="fill:#b2b2b2"></path>
      <path d="M1878.3673,1004.0851c5.166,11.518-55.3479,21.5764-135.5289,21.6484-80.181.0714-140.7276-9.8762-135.5942-21.4009,4.7689-10.7162,65.3149-18.9114,135.5355-18.9767C1813.0004,985.2971,1873.5729,993.3883,1878.3673,1004.0851Z" style="fill:#848484"></path>
      <path d="M1878.3673,1004.0851c-4.7944-10.6968-65.3669-18.788-135.5876-18.7292-70.2206.0653-130.7666,8.2605-135.5355,18.9767a3.39214,3.39214,0,0,0-.2863,1.0947,2.72928,2.72928,0,0,1,.2408-.8926c4.0393-9.0744,55.3219-16.0188,114.7931-16.0715,59.4712-.0521,110.7738,6.8016,114.8385,15.8634,4.3713,9.7589-46.8786,18.273-114.7864,18.3317-63.6346.0587-112.6564-7.3354-115.0146-16.2991,2.3515,10.6381,60.3898,19.4391,135.8091,19.3743C1823.0194,1025.6615,1883.5333,1015.6031,1878.3673,1004.0851Z" style="opacity:.3;mix-blend-mode:soft-light"></path>
      <path d="M2160.9614,1675.3646c-104.9754,0-190.076-11.7164-190.076-26.1735v28.6369c0,14.4572,85.1006,29.1868,190.076,29.1868s190.0755-14.7296,190.0755-29.1868v-28.6369C2351.0369,1663.6482,2265.9368,1675.3646,2160.9614,1675.3646Z" style="fill:#c1c1c1"></path>
      <path d="M2160.9614,1701.4724c-104.9754,0-190.076-14.7295-190.076-29.1867v5.5423c0,14.4572,85.1006,29.1868,190.076,29.1868s190.0755-14.7296,190.0755-29.1868v-5.5423C2351.0369,1686.7429,2265.9368,1701.4724,2160.9614,1701.4724Z" style="mix-blend-mode:soft-light;opacity:.8"></path>
      <path d="M2005.7722 1669.0659v19.1563c0 4.4713 4.2045 6.6362 6.4234 7.0768 17.0304 3.3557 38.5801 6.233 63.1974 8.2943.4027.0329 5.3252.43 5.7273.4623a5.97774 5.97774 0 0 1-4.5198-5.8142v-20.4947c0-3.9377 4.9659-4.7648 4.9659-4.7648-.3804-.0273-5.7272-.3804-6.1083-.4077-25.1665-1.7517-47.1299-4.248-64.3391-7.2779C2009.2805 1664.9755 2005.7722 1666.1123 2005.7722 1669.0659ZM2258.2513 1671.6819s5.5641.8377 5.5641 6.4185v18.977c0 3.8508-5.5641 5.4499-5.5641 5.4499.3313-.0329 6.2274-.6366 6.5593-.6745 24.139-2.5782 44.4649-5.9723 59.3081-9.7848 1.8385-.4734 5.2655-2.9536 5.2655-6.712v-17.4865c0-3.3401-3.8291-5.5697-5.9016-5.1024-14.8381 3.3619-35.0115 6.228-58.9115 8.3712C2264.3211 1671.16 2258.5013 1671.6602 2258.2513 1671.6819Z" style="mix-blend-mode:soft-light;fill:#fff;opacity:.7"></path>
      <path d="M2160.9614,1332.6119c-104.9754,0-190.076-11.7214-190.076-26.1786v342.0338c0,2.9697,3.6008,5.8253,10.2259,8.4904,25.6021,10.291,96.4522,19.8859,179.8501,19.8859,83.4035,0,154.248-9.5949,179.8501-19.8859,6.6251-2.6651,10.2254-5.5207,10.2254-8.4904V1306.4333C2351.0369,1320.8905,2265.9368,1332.6119,2160.9614,1332.6119Z" style="fill:#b2b2b2"></path>
      <path d="M2340.8115,1653.6179c-25.6021,10.2855-96.4466,19.8854-179.8501,19.8854-83.3979,0-154.248-9.5999-179.8501-19.8854-6.6251-2.6651-10.2259-5.5207-10.2259-8.4904v3.3396c0,2.9697,3.6008,5.8253,10.2259,8.4904,25.6021,10.291,96.4522,19.8859,179.8501,19.8859,83.4035,0,154.248-9.5949,179.8501-19.8859,6.6251-2.6651,10.2254-5.5207,10.2254-8.4904v-3.3396C2351.0369,1648.0972,2347.4366,1650.9528,2340.8115,1653.6179Z" style="mix-blend-mode:multiply;opacity:.3;fill:url(#a4967b07-71da-4f7c-ba24-c7dc2304b30f)"></path>
      <path d="M2291.789,1211.6783c0,9.9479-58.574,18.0145-130.8276,18.0145s-130.822-8.061-130.8275-18.0145l-59.2485,94.755c0,14.4572,85.1006,26.1786,190.076,26.1786s190.0755-11.7214,190.0755-26.1786Z" style="fill:#c1c1c1"></path>
      <path d="M2030.1506,1170.7975l-.0167.0055v40.8753h0c.0055,9.9535,58.5739,18.0145,130.8275,18.0145s130.8276-8.0666,130.8276-18.0145v-40.8808c-26.9672,6.0536-75.4735,10.09-130.8276,10.09C2105.6184,1180.8875,2057.1228,1176.8511,2030.1506,1170.7975Z" style="fill:#9b9b9b"></path>
      <path d="M2030.1506,1170.7975l-.0167.0055v40.8753h0c.0055,9.9535,58.5739,18.0145,130.8275,18.0145s130.8276-8.0666,130.8276-18.0145v-40.8808c0,29.4474-26.1624,56.4853-130.8276,56.4853C2056.3018,1227.2828,2030.1506,1204.4221,2030.1506,1170.7975Z" style="mix-blend-mode:multiply;opacity:.3;fill:url(#afcabf4c-62d0-44df-9295-b93eed7f0fa4)"></path>
      <path d="M2030.1506,1170.7975l-.0167.0055v1.1641c.0217,9.948,58.5851,18.0145,130.8275,18.0145,72.2536,0,130.8276-8.0665,130.8276-18.0201v-1.164c-26.9672,6.0536-75.4735,10.09-130.8276,10.09C2105.6184,1180.8875,2057.1228,1176.8511,2030.1506,1170.7975Z" style="mix-blend-mode:multiply;opacity:.5;fill:url(#b1c3d602-da91-4407-a505-98dbeafce32a)"></path>
      <path d="M2317.4507,1152.1307l-33.2604-32.9451c4.6942,11.341-50.3281,21.2344-123.2289,21.2995-72.8952.0657-127.9447-9.7302-123.294-21.0762h0l-33.1568,32.9992h-.0055c-5.0584,5.0367-1.1262,10.0349,10.5412,14.5279l-.0168.0162.0217-.0056c23.8399,9.176,78.4488,15.839,145.9698,15.7739,67.5378-.0546,122.1305-6.8212,145.9375-16.0346l-.0111-.0111C2318.6036,1162.1606,2322.5252,1157.1562,2317.4507,1152.1307Z" style="fill:url(#a52a8dc0-4818-44aa-82fb-7ce083898693)"></path>
      <path d="M2317.4507,1152.1307l-33.2604-32.9451c4.6942,11.341-50.3281,21.2344-123.2289,21.2995-72.8952.0657-126.2914-9.9535-121.6407-21.2995l-1.6533.2233-33.1568,32.9992h-.0055c-5.0584,5.0367-1.1262,10.0349,10.5412,14.5279l-.0168.0162.0217-.0056c23.8399,9.176,78.4488,15.839,145.9698,15.7739,67.5378-.0546,122.1305-6.8212,145.9375-16.0346l-.0111-.0111C2318.6036,1162.1606,2322.5252,1157.1562,2317.4507,1152.1307Z" style="fill:#c1c1c1"></path>
      <path d="M2005.7722 1338.6271v306.4898c0 11.1065 9.8505 15.3166 15.36 16.2356 15.2893 2.5453 33.4943 4.781 53.8096 6.4886.7013.0546 11.58.8923 12.2867.9519 0 0-10.1763-2.7085-10.1763-13.6902V1347.3681c0-14.1798 11.9603-16.7691 11.9603-16.7691-5.8743-.3804-17.0298-1.0822-19.51-1.2727-19.2165-1.4414-36.4095-3.3178-50.8449-5.5368C2014.0776 1323.0822 2005.7722 1325.1385 2005.7722 1338.6271ZM2245.0667 1329.827s9.5837 1.9795 9.5837 12.9395V1654.978c0 10.6063-9.5837 14.0166-9.5837 14.0166.5386-.0546 19.8308-1.7461 20.3695-1.8006 23.6766-2.5181 41.5602-5.1999 56.224-8.7895 6.1628-1.5122 7.724-4.58 7.724-13.0704V1332.4593c0-6.5377-2.1432-13.3149-9.4317-11.678-14.0712 3.1603-32.5368 5.6677-54.0485 7.3865C2259.0449 1328.717 2245.7629 1329.7669 2245.0667 1329.827ZM2063.9707 1183.4217v34.7018c0 4.7698-3.5952 5.0745-3.5952 5.0745 1.7026.2612 7.0545 1.0827 8.8602 1.3273 10.5846 1.4308 22.9264 2.616 36.5404 3.4866.201.0161 5.7328.3536 5.9339.3642a7.197 7.197 0 0 1-5.3358-7.2121v-32.8031C2096.5622 1188.2355 2075.926 1186.1798 2063.9707 1183.4217ZM2232.6926 1186.6905v33.4887c0 5.8799-6.3149 7.1036-6.3149 7.1036.1961-.0162 6.7064-.5765 6.9025-.5926a352.8122 352.8122 0 0 0 35.354-4.7754c.3537-.0708 6.4402-1.4309 6.7828-1.5016 0 0-5.7329-.767-5.7329-5.2433v-33.6135C2259.4587 1183.9876 2246.3884 1185.6902 2232.6926 1186.6905Z" style="mix-blend-mode:soft-light;fill:#fff;opacity:.7"></path>
      <g style="mix-blend-mode:screen">
        <path d="m2076.6824 1135.253-21.822 40.8696c16.377 2.4312 35.9528 4.3132 57.8778 5.4338l3.4593-42.3545C2101.3376 1138.299 2088.001 1136.9445 2076.6824 1135.253ZM2245.5234 1135.0569l16.709 41.5876c18.3465-2.5342 33.0482-5.7329 43.0129-9.3281l-31.6179-38.6284C2266.9371 1131.0919 2257.359 1133.2568 2245.5234 1135.0569Z" style="mix-blend-mode:soft-light;fill:#fff;opacity:.7"></path>
      </g>
      <path d="M2351.0369,1306.4333a4.93476,4.93476,0,0,1-1.3758,3.3775c-1.6207,1.9906-5.0856,4.1989-9.9262,6.2062-9.7146,4.0197-24.6887,7.7452-42.9366,10.7205-18.2646,2.9698-39.8036,5.4772-63.0018,7.049-23.1921,1.5773-48.0055,2.415-72.8406,2.4857-24.8135-.0595-49.6375-.9084-72.8301-2.4857-23.1976-1.5612-44.7367-4.0792-63.0013-7.0434-18.2535-2.9753-33.2219-6.7064-42.9365-10.7261-4.8406-2.0073-8.3055-4.2156-9.9207-6.2062a4.934,4.934,0,0,1-1.3819-3.3775,5.01741,5.01741,0,0,0,1.5395,3.285c1.6859,1.9093,5.2327,3.916,10.0789,5.793,9.7469,3.7634,24.7967,6.9181,43.0072,9.6216,18.2318,2.7197,39.7597,4.683,62.8704,6.1406,23.1114,1.447,47.8485,2.1543,72.5856,2.0886,24.7204.0707,49.4687-.6361,72.5794-2.0886,11.5526-.7503,22.7137-1.5662,33.2604-2.5888,10.5517-1.012,20.4891-2.2084,29.605-3.5462,18.2106-2.7035,33.2659-5.8582,43.0129-9.6272,4.8461-1.877,8.3924-3.8837,10.0733-5.793A4.9377,4.9377,0,0,0,2351.0369,1306.4333Z" style="mix-blend-mode:soft-light;fill:#fff;opacity:.7"></path>
      <path d="M2291.789,1211.6783c85.7149,184.0217-335.8665,103.2889-320.9036,94.755,0,14.4572,85.1006,26.1786,190.076,26.1786s190.0755-11.7214,190.0755-26.1786Z" style="mix-blend-mode:multiply;opacity:.3;fill:url(#b6fda391-48f4-4d89-a882-1b675b2b234d)"></path>
      <path d="M2063.9707 1223.7694h0l-51.1111 99.0738c19.5696 3.3446 42.3706 5.8576 71.5189 7.5547l21.9902-102.3482C2090.1877 1227.0271 2075.7739 1225.564 2063.9707 1223.7694ZM2228.5153 1227.163s3.7585.2613 4.0631 2.5298c.3047 2.2735 13.5382 100.1504 13.5382 100.1504 27.8428-2.263 63.8769-6.3366 80.2489-10.1819l-55.1804-97.9916C2261.4115 1223.682 2243.2337 1225.8308 2228.5153 1227.163Z" style="mix-blend-mode:soft-light;fill:#fff;opacity:.7"></path>
      <path d="M2160.7654,1657.4961c-158.4253,14.4031-189.88-9.029-189.88-9.029,0,2.9697,3.6008,5.8253,10.2259,8.4904,25.6021,10.291,96.4522,19.8859,179.8501,19.8859,83.4035,0,154.248-9.5949,179.8501-19.8859,6.6251-2.6651,10.2254-5.5207,10.2254-8.4904V1373.2637C2351.0369,1519.3371,2328.5628,1642.2446,2160.7654,1657.4961Z" style="opacity:.3;mix-blend-mode:soft-light"></path>
      <path d="M2284.1903,1119.8985c4.6991,11.3404-50.323,21.2394-123.2289,21.3051-72.9058.0652-127.9608-9.7308-123.294-21.0823,4.3349-10.5467,59.3899-18.6127,123.2394-18.6723C2224.7514,1101.3944,2279.8282,1109.3629,2284.1903,1119.8985Z" style="fill:#b2b2b2"></path>
      <path d="M2274.117,1123.1289c4.3132,9.6166-46.211,18.0146-113.1556,18.0747-66.9446.0596-117.496-8.2459-113.2101-17.868,3.9817-8.9471,54.5326-15.7895,113.1611-15.8441C2219.5409,1107.4425,2270.1141,1114.198,2274.117,1123.1289Z" style="fill:#848484"></path>
      <path d="M2274.117,1123.1289c-4.0029-8.9309-54.5761-15.6864-113.2046-15.6374-58.6285.0546-109.1794,6.897-113.1611,15.8441a2.83649,2.83649,0,0,0-.239.9139,2.27774,2.27774,0,0,1,.2011-.7452c3.3724-7.5764,46.1892-13.3744,95.8428-13.4184,49.6536-.0435,92.4871,5.6788,95.8808,13.2446,3.6497,8.1479-39.1398,15.2565-95.8373,15.3055-53.1296.049-94.0589-6.1244-96.0278-13.6084,1.9633,8.882,50.4206,16.23,113.3895,16.176C2227.906,1141.1435,2278.4302,1132.7455,2274.117,1123.1289Z" style="opacity:.3;mix-blend-mode:soft-light"></path>
    </g>
  </g>
</svg>
